<?xml version="1.0" encoding="iso-8859-1"?>
<!-- Uploaded to: SVG Repo, www.svgrepo.com, Generator: SVG Repo Mixer Tools -->
<svg version="1.1" id="Layer_1" xmlns="http://www.w3.org/2000/svg" xmlns:xlink="http://www.w3.org/1999/xlink" 
	 viewBox="0 0 512 512" xml:space="preserve">
<polyline style="fill:#BDCCD4;" points="31.879,279.227 47.887,367.208 464.113,367.208 480.121,279.193 "/>
<polygon style="fill:#8E999F;" points="489.426,256.045 23.8,256.045 23.8,279.117 31.879,279.117 41.026,367.208 278.87,367.208 
	294.592,279.117 489.426,279.117 "/>
<path style="fill:#F7931E;" d="M501.974,255.281H9.963c-1.159,0-2.097-0.939-2.097-2.097v-27.822c0-1.159,0.939-2.097,2.097-2.097
	h492.012c1.193,0,2.16,0.967,2.16,2.16v27.697C504.135,254.314,503.168,255.281,501.974,255.281z"/>
<polygon style="fill:#6B7377;" points="70.992,260.24 23.8,260.24 23.8,275.971 33.212,275.971 47.887,364.062 71.9,364.062 
	57.226,275.971 70.992,275.971 "/>
<path style="fill:#B96E16;" d="M23.874,223.535h56.03c-8.842,0-16.008,7.413-16.008,16.255c0,8.842,7.168,16.255,16.008,16.255
	h-56.03c-8.842,0-16.008-7.413-16.008-16.255C7.865,230.949,15.032,223.535,23.874,223.535z"/>
<path style="fill:#F7931E;" d="M31.879,223.264L31.879,223.264c0-44.207,35.836-80.043,80.043-80.043h288.157
	c44.207,0,80.043,35.836,80.043,80.043l0,0"/>
<path style="fill:#F9A94B;" d="M400.078,143.834h-48.026c44.207,0,80.043,35.656,80.043,79.702h48.027
	C480.121,179.49,444.285,143.834,400.078,143.834z"/>
<g>
	<rect x="151.737" y="143.222" style="fill:#B96E16;" width="24.215" height="32.017"/>
	<rect x="240.877" y="143.222" style="fill:#B96E16;" width="23.124" height="32.017"/>
	<rect x="327.92" y="143.222" style="fill:#B96E16;" width="24.131" height="32.017"/>
	<path style="fill:#B96E16;" d="M111.922,143.834h48.027c-44.207,0-80.043,30.412-80.043,79.702H31.879
		C31.879,174.246,67.715,143.834,111.922,143.834z"/>
</g>
<path style="fill:#F9A94B;" d="M487.381,223.535h-55.285c8.842,0,16.009,7.413,16.009,16.255c0,8.842-7.168,16.255-16.009,16.255
	h56.03c9.57,0,17.18-8.686,15.86-18.468C502.886,229.43,495.6,223.535,487.381,223.535z"/>
<path d="M512,239.272c0-13.164-10.709-23.875-23.874-23.875h-0.51c-3.993-44.8-41.719-80.043-87.539-80.043H111.922
	c-45.82,0-83.545,35.244-87.539,80.043h-0.51C10.709,215.398,0,226.108,0,239.272c0,10.576,6.915,19.563,16.459,22.69v24.496h8.588
	l16.265,90.189h429.368l16.331-90.189h8.705v-24.556C505.17,258.721,512,249.782,512,239.272z M111.922,151.085h55.552v16.868
	h-15.731v15.731h31.461v-32.599h72.361v16.868h-14.682v15.731h30.412v-32.599h72.361v16.868h-15.731v15.731h31.461v-32.599h40.692
	c37.141,0,67.809,28.201,71.742,64.313H40.18C44.113,179.286,74.78,151.085,111.922,151.085z M457.544,360.916H54.461
	l-13.429-74.458h87.639v-15.731H32.191v-7.581h447.797v7.581h-96.481v15.731h87.521L457.544,360.916z M488.126,247.415h-88.889
	v-9.198h-15.731v9.198h-96.481v-9.198h-15.731v9.198h-95.432v-9.198h-15.731v9.198h-97.53v-9.198H46.872v9.198H23.874
	c-4.49,0-8.143-3.653-8.143-8.143c0-4.491,3.653-8.144,8.143-8.144h79.629v7.088h15.731v-7.088h95.432v7.088h15.731v-7.088h97.53
	v7.088h15.731v-7.088h95.432v7.088h15.731v-7.088h33.308c4.49,0,8.143,3.654,8.143,8.144S492.616,247.415,488.126,247.415z"/>
</svg>